<svg xmlns="http://www.w3.org/2000/svg" width="512" height="512" viewBox="0 0 512 512">
  <rect width="512" height="512" rx="96" fill="#863bff"/>
  <path fill="white" d="M275.95 478.5c-7.1 9.04-21.62 4.01-21.62-7.47V350.6a24.18 24.18 0 0 0-24.19-24.19H109.9c-9.84 0-15.58-11.12-9.84-19.13l80.03-112.05c11.45-16.03 0-38.29-19.71-38.29H13.24c-9.84 0-15.58-11.13-9.84-19.13l94.99-132.96A10.77 10.77 0 0 1 108.24 0H417.35c9.84 0 15.58 11.12 9.84 19.12L347.16 131.18c-11.45 16.03 0 38.29 19.71 38.29H488.74c10.09 0 15.76 11.64 9.53 19.58L275.95 478.5z"/>
</svg>
